<svg xmlns="http://www.w3.org/2000/svg" viewBox="0 0 64 64" fill="none">
  <rect width="64" height="64" rx="12" fill="#1e3a5f"/>
  <g transform="translate(32,32)">
    <circle cx="0" cy="0" r="18" stroke="#7cb3d4" stroke-width="3" fill="none"/>
    <circle cx="0" cy="0" r="7" stroke="#7cb3d4" stroke-width="3" fill="none"/>
    <line x1="0" y1="-18" x2="0" y2="-7" stroke="#7cb3d4" stroke-width="2.5"/>
    <line x1="0" y1="7" x2="0" y2="18" stroke="#7cb3d4" stroke-width="2.5"/>
    <line x1="-18" y1="0" x2="-7" y2="0" stroke="#7cb3d4" stroke-width="2.5"/>
    <line x1="7" y1="0" x2="18" y2="0" stroke="#7cb3d4" stroke-width="2.5"/>
    <line x1="-12.7" y1="-12.7" x2="-4.9" y2="-4.9" stroke="#7cb3d4" stroke-width="2.5"/>
    <line x1="4.9" y1="4.9" x2="12.7" y2="12.7" stroke="#7cb3d4" stroke-width="2.5"/>
    <line x1="12.7" y1="-12.7" x2="4.9" y2="-4.9" stroke="#7cb3d4" stroke-width="2.5"/>
    <line x1="-4.9" y1="4.9" x2="-12.7" y2="12.7" stroke="#7cb3d4" stroke-width="2.5"/>
  </g>
  <g transform="translate(32,32) rotate(-45)">
    <rect x="-3.5" y="-28" width="7" height="56" rx="3" fill="#c0d6e4" opacity="0.3"/>
    <rect x="-2" y="-26" width="4" height="18" rx="2" fill="#7cb3d4"/>
    <rect x="-4" y="6" width="8" height="6" rx="1" fill="#7cb3d4"/>
    <rect x="-3" y="12" width="6" height="14" rx="1.5" fill="#7cb3d4"/>
  </g>
</svg>
